<svg width="13" height="16" viewBox="0 0 13 16" fill="none" xmlns="http://www.w3.org/2000/svg">
<path d="M11.875 1.2499H9.32547C9.00941 0.896032 8.62218 0.612907 8.18913 0.419056C7.75607 0.225205 7.28696 0.125 6.8125 0.125C6.33804 0.125 5.86893 0.225205 5.43587 0.419056C5.00282 0.612907 4.61559 0.896032 4.29953 1.2499H1.75C1.45163 1.2499 1.16548 1.36842 0.954505 1.5794C0.743526 1.79038 0.625 2.07653 0.625 2.3749V14.1874C0.625 14.4858 0.743526 14.7719 0.954505 14.9829C1.16548 15.1939 1.45163 15.3124 1.75 15.3124H11.875C12.1734 15.3124 12.4595 15.1939 12.6705 14.9829C12.8815 14.7719 13 14.4858 13 14.1874V2.3749C13 2.07653 12.8815 1.79038 12.6705 1.5794C12.4595 1.36842 12.1734 1.2499 11.875 1.2499ZM6.8125 1.2499C7.40924 1.2499 7.98153 1.48695 8.40349 1.90891C8.82545 2.33086 9.0625 2.90316 9.0625 3.4999H4.5625C4.5625 2.90316 4.79955 2.33086 5.22151 1.90891C5.64347 1.48695 6.21576 1.2499 6.8125 1.2499ZM11.875 14.1874H1.75V2.3749H3.63086C3.5029 2.73618 3.43751 3.11663 3.4375 3.4999V4.0624C3.4375 4.21158 3.49676 4.35466 3.60225 4.46015C3.70774 4.56563 3.85082 4.6249 4 4.6249H9.625C9.77418 4.6249 9.91726 4.56563 10.0227 4.46015C10.1282 4.35466 10.1875 4.21158 10.1875 4.0624V3.4999C10.1875 3.11663 10.1221 2.73618 9.99414 2.3749H11.875V14.1874Z" fill="#533893"/>
</svg>
