<svg xmlns="http://www.w3.org/2000/svg" viewBox="0 0 181.21 156.34"><defs><style>.cls-1,.cls-2{fill:#9ebe43;}.cls-1{stroke:#fff;stroke-miterlimit:10;stroke-width:9px;}</style></defs><g id="Capa_2" data-name="Capa 2"><g id="Capa_1-2" data-name="Capa 1"><path class="cls-1" d="M49.58,90.22a29.28,29.28,0,0,1-12.45,5.3A28.32,28.32,0,0,1,4.87,71.82c-2-13.73,4.34-25.57,16.92-31.6a3.36,3.36,0,0,0,1.53-2A24.92,24.92,0,0,1,48.23,19.37c.74,0,1.92-.36,2.17-.9A24.42,24.42,0,0,1,86.53,9c3.34-1.34,6.38-3,9.64-3.78,8.54-1.93,16.06.38,22.33,6.5a2.8,2.8,0,0,0,2.91.91,24.15,24.15,0,0,1,27.15,13,3.66,3.66,0,0,0,2.57,2.1,25.07,25.07,0,0,1,18.15,27,3.52,3.52,0,0,0,.78,2.38c9.94,11.52,8.6,27.55-3.11,37.33a3.65,3.65,0,0,0-1.11,2.41,30.12,30.12,0,0,1-3,12.76,17.2,17.2,0,0,1-11.76,9.63,44.08,44.08,0,0,1-6.37,1.28,6.93,6.93,0,0,0-6,4.24c-2.78,5.58-4.06,11.58-4.9,17.69-.28,2-.33,4.05-.49,6.07s-1.18,3.22-3.33,3.24q-10.49.06-21,0c-2.42,0-3.37-1.13-3.36-3.79,0-12.32,0-24.64.24-37a15.8,15.8,0,0,0-5.24-12.33,31.47,31.47,0,0,0-19.13-8.63c-1.35-.13-2.8.51-4.17.92a5.53,5.53,0,0,0-1.6,1c-9.09,6.73-18.54,3.57-24.77-.79ZM70.06,46c0,4.63,0,9-.06,13.43,0,.55-.7,1.25-1.26,1.59a9,9,0,0,0-4.58,7.34,8.92,8.92,0,1,0,13.6-7.11c-.65-.42-1.57-1-1.64-1.6A47.93,47.93,0,0,1,76,54H94v2.44q0,12.81,0,25.62c0,2.22,1.15,3.59,2.92,3.63s3-1.34,3-3.54c0-1.43,0-2.86,0-4.22h25.94c0,4-.08,7.87,0,11.71a3.46,3.46,0,0,1-1.94,3.64,8.55,8.55,0,0,0-3.78,9.66,8.91,8.91,0,0,0,17.09.48c1.2-3.62.07-7.91-3.19-9.84-2.06-1.21-2.41-2.61-2.34-4.69.12-3.67,0-7.35,0-11.14,3.8,0,7.3,0,10.79,0a2.32,2.32,0,0,1,2.43,1.4,8.7,8.7,0,0,0,9.81,4.3,8.93,8.93,0,1,0-9.85-13.09c-.34.55-.82,1.37-1.3,1.4-1.91.16-3.85.07-5.81.07V49.94h2.38c4.48,0,9,0,13.43,0,2.56,0,4-1.16,4-3s-1.44-3-4-3c-3.92,0-7.83,0-11.75,0h-4.12c0-1.07,0-1.82,0-2.57,0-4.06,0-8.12,0-12.18a2.77,2.77,0,0,0-2.77-3.06,2.92,2.92,0,0,0-3.12,3c0,.56,0,1.12,0,1.68v23H115.8c0-3-.08-6,0-8.88a3,3,0,0,1,1.23-2c3.71-2.32,5.47-6.26,4.39-10.23a8.94,8.94,0,0,0-17.23,0,8.73,8.73,0,0,0,4.41,10.14,2.15,2.15,0,0,1,1.25,2.3c0,3.64,0,7.28,0,10.92,0,2.8,1,3.8,3.76,3.82,5.25,0,10.5,0,15.75,0h2.23V71.65H99.88c0-6.77,0-13.34,0-19.92,0-2.81-1-3.78-3.78-3.78-5.87,0-11.75,0-17.63,0H76.29a4.68,4.68,0,0,1-.23-.87c0-3.15.07-6.3-.07-9.45a3,3,0,0,1,1.77-3.11,8.66,8.66,0,0,0,3.95-9.78,8.94,8.94,0,0,0-17-.71c-1.32,3.69-.28,8.08,3.14,10,2.74,1.54,2.3,3.5,2.15,5.95H37.15a9.81,9.81,0,0,0-1.88.05,2.8,2.8,0,0,0-2.59,3,2.76,2.76,0,0,0,2.63,2.78c.88.11,1.78.1,3,.15,0,2.89-.06,5.67,0,8.45a2.7,2.7,0,0,1-1.58,2.8,8.58,8.58,0,0,0-4.3,8.86,8.92,8.92,0,1,0,13.27-9c-.51-.31-1.31-.74-1.33-1.14-.1-3.32-.06-6.64-.06-10Z"/><path class="cls-2" d="M49.58,90.22a29.28,29.28,0,0,1-12.45,5.3A28.32,28.32,0,0,1,4.87,71.82c-2-13.73,4.34-25.57,16.92-31.6a3.36,3.36,0,0,0,1.53-2A24.92,24.92,0,0,1,48.23,19.37c.74,0,1.92-.36,2.17-.9A24.42,24.42,0,0,1,86.53,9c3.34-1.34,6.38-3,9.64-3.78,8.54-1.93,16.06.38,22.33,6.5a2.8,2.8,0,0,0,2.91.91,24.15,24.15,0,0,1,27.15,13,3.66,3.66,0,0,0,2.57,2.1,25.07,25.07,0,0,1,18.15,27,3.52,3.52,0,0,0,.78,2.38c9.94,11.52,8.6,27.55-3.11,37.33a3.65,3.65,0,0,0-1.11,2.41,30.12,30.12,0,0,1-3,12.76,17.2,17.2,0,0,1-11.76,9.63,44.08,44.08,0,0,1-6.37,1.28,6.93,6.93,0,0,0-6,4.24c-2.78,5.58-4.06,11.58-4.9,17.69-.28,2-.33,4.05-.49,6.07s-1.18,3.22-3.33,3.24q-10.49.06-21,0c-2.42,0-3.37-1.13-3.36-3.79,0-12.32,0-24.64.24-37a15.8,15.8,0,0,0-5.24-12.33,31.47,31.47,0,0,0-19.13-8.63c-1.35-.13-2.8.51-4.17.92a5.53,5.53,0,0,0-1.6,1c-9.09,6.73-18.54,3.57-24.77-.79ZM70.06,46c0,4.63,0,9-.06,13.43,0,.55-.7,1.25-1.26,1.59a9,9,0,0,0-4.58,7.34,8.92,8.92,0,1,0,13.6-7.11c-.65-.42-1.57-1-1.64-1.6A47.93,47.93,0,0,1,76,54H94v2.44q0,12.81,0,25.62c0,2.22,1.15,3.59,2.92,3.63s3-1.34,3-3.54c0-1.43,0-2.86,0-4.22h25.94c0,4-.08,7.87,0,11.71a3.46,3.46,0,0,1-1.94,3.64,8.55,8.55,0,0,0-3.78,9.66,8.91,8.91,0,0,0,17.09.48c1.2-3.62.07-7.91-3.19-9.84-2.06-1.21-2.41-2.61-2.34-4.69.12-3.67,0-7.35,0-11.14,3.8,0,7.3,0,10.79,0a2.32,2.32,0,0,1,2.43,1.4,8.7,8.7,0,0,0,9.81,4.3,8.93,8.93,0,1,0-9.85-13.09c-.34.55-.82,1.37-1.3,1.4-1.91.16-3.85.07-5.81.07V49.94h2.38c4.48,0,9,0,13.43,0,2.56,0,4-1.16,4-3s-1.44-3-4-3c-3.92,0-7.83,0-11.75,0h-4.12c0-1.07,0-1.82,0-2.57,0-4.06,0-8.12,0-12.18a2.77,2.77,0,0,0-2.77-3.06,2.92,2.92,0,0,0-3.12,3c0,.56,0,1.12,0,1.68v23H115.8c0-3-.08-6,0-8.88a3,3,0,0,1,1.23-2c3.71-2.32,5.47-6.26,4.39-10.23a8.94,8.94,0,0,0-17.23,0,8.73,8.73,0,0,0,4.41,10.14,2.15,2.15,0,0,1,1.25,2.3c0,3.64,0,7.28,0,10.92,0,2.8,1,3.8,3.76,3.82,5.25,0,10.5,0,15.75,0h2.23V71.65H99.88c0-6.77,0-13.34,0-19.92,0-2.81-1-3.78-3.78-3.78-5.87,0-11.75,0-17.63,0H76.29a4.68,4.68,0,0,1-.23-.87c0-3.15.07-6.3-.07-9.45a3,3,0,0,1,1.77-3.11,8.66,8.66,0,0,0,3.95-9.78,8.94,8.94,0,0,0-17-.71c-1.32,3.69-.28,8.08,3.14,10,2.74,1.54,2.3,3.5,2.15,5.95H37.15a9.81,9.81,0,0,0-1.88.05,2.8,2.8,0,0,0-2.59,3,2.76,2.76,0,0,0,2.63,2.78c.88.11,1.78.1,3,.15,0,2.89-.06,5.67,0,8.45a2.7,2.7,0,0,1-1.58,2.8,8.58,8.58,0,0,0-4.3,8.86,8.92,8.92,0,1,0,13.27-9c-.51-.31-1.31-.74-1.33-1.14-.1-3.32-.06-6.64-.06-10Z"/></g></g></svg>